<svg width="160" height="56" viewBox="0 0 160 56" fill="none" xmlns="http://www.w3.org/2000/svg">
  <!-- Dog silhouette -->
  <path d="M32 12C26 12 22 16 22 20C22 24 24 28 32 28C40 28 42 24 42 20C42 16 38 12 32 12Z" fill="#4F46E5"/>
  <path d="M22 20C22 20 18 22 18 28C18 34 22 40 22 40C22 40 24 38 24 36C24 34 20 30 20 28C20 26 22 20 22 20Z" fill="#4F46E5"/>
  <path d="M42 20C42 20 46 22 46 28C46 34 42 40 42 40C42 40 40 38 40 36C40 34 44 30 44 28C44 26 42 20 42 20Z" fill="#4F46E5"/>
  <circle cx="29" cy="18" r="1.5" fill="white"/>
  <circle cx="35" cy="18" r="1.5" fill="white"/>
  <path d="M30 24H34C34 25.5 32.5 27 32 27C31.5 27 30 25.5 30 24Z" fill="white"/>
  <!-- Text "BuddyBoard" -->
  <path d="M56 20C56 17.8 57.8 16 60 16H65C67.2 16 69 17.8 69 20V22C69 24.2 67.2 26 65 26H60V32H56V20ZM60 22H65V20H60V22Z" fill="#4F46E5"/>
  <path d="M72 16H76V26H84V16H88V32H84V30H76V32H72V16Z" fill="#4F46E5"/>
  <path d="M92 16H96V32H92V16Z" fill="#4F46E5"/>
  <path d="M100 16H104V32H100V16Z" fill="#4F46E5"/>
  <path d="M115 30L112 26H111V32H107V16H115C117.2 16 119 17.8 119 20V22C119 23.5 118.1 24.8 116.8 25.4L120 30H115ZM111 22H115V20H111V22Z" fill="#4F46E5"/>
  <path d="M134 28C134 30.2 132.2 32 130 32H126C123.8 32 122 30.2 122 28V20C122 17.8 123.8 16 126 16H130C132.2 16 134 17.8 134 20V28ZM130 28V20H126V28H130Z" fill="#4F46E5"/>
  <path d="M136 16H140V26H148V16H152V32H148V30H140V32H136V16Z" fill="#4F46E5"/>
  <path d="M156 16H160V32H156V16Z" fill="#4F46E5"/>
</svg> 